<?xml version="1.0" standalone="no"?>
<!DOCTYPE svg PUBLIC "-//W3C//DTD SVG 20010904//EN"
 "http://www.w3.org/TR/2001/REC-SVG-20010904/DTD/svg10.dtd">
<svg version="1.0" xmlns="http://www.w3.org/2000/svg"
 width="512.000000pt" height="512.000000pt" viewBox="0 0 512.000000 512.000000"
 preserveAspectRatio="xMidYMid meet">

<g transform="translate(0.000000,512.000000) scale(0.100000,-0.100000)"
fill="#000000" stroke="none">
<path d="M3115 4883 c-27 -8 -54 -18 -59 -23 -4 -5 -23 -6 -41 -3 -19 3 -44
-1 -63 -11 -17 -9 -44 -16 -61 -16 -34 0 -49 -15 -25 -24 9 -3 14 -12 11 -20
-4 -10 6 -16 34 -20 44 -7 50 -21 15 -37 -31 -15 -67 -6 -104 26 -38 32 -70
32 -82 1 -5 -13 -14 -27 -19 -31 -6 -3 -11 -15 -11 -26 0 -16 7 -19 45 -19 50
0 57 -10 23 -32 l-23 -15 35 -22 c40 -24 88 -28 96 -7 9 23 32 27 50 9 15 -15
15 -18 -1 -29 -9 -7 -14 -18 -10 -24 4 -7 -1 -14 -13 -17 -21 -5 -36 -39 -21
-48 5 -3 36 -1 70 5 46 8 69 8 89 0 15 -6 47 -10 71 -8 40 3 44 6 47 31 3 21
15 35 48 55 44 27 54 48 33 69 -6 6 -8 16 -5 21 7 12 83 37 138 46 30 6 41 15
62 51 14 24 34 46 44 48 9 3 41 11 70 17 52 12 63 25 40 48 -15 15 -56 15
-111 1 -32 -8 -50 -7 -72 2 -43 19 -239 20 -300 2z"/>
<path d="M2525 4709 c-4 -6 -19 -7 -35 -4 -22 5 -31 2 -39 -14 -20 -36 -14
-43 27 -36 33 5 44 2 69 -19 33 -28 62 -34 64 -13 3 27 -4 43 -29 70 -27 28
-46 34 -57 16z"/>
<path d="M2306 4534 c-3 -9 -6 -28 -6 -42 0 -27 -1 -26 -34 13 -32 37 -35 39
-52 24 -11 -9 -27 -19 -36 -22 -28 -10 -21 -27 12 -34 19 -3 37 -17 47 -34 20
-33 31 -35 59 -14 22 17 67 19 94 5 13 -7 21 -5 31 6 11 13 8 19 -14 37 -14
12 -31 34 -36 50 -12 31 -55 38 -65 11z"/>
<path d="M2474 4528 c-7 -12 21 -38 42 -38 7 0 14 -10 16 -22 2 -18 10 -23 34
-23 18 -1 38 -6 46 -13 21 -17 28 -5 28 50 0 56 -19 71 -50 43 -18 -16 -22
-16 -60 -1 -48 19 -47 19 -56 4z"/>
<path d="M2714 4475 c-11 -28 4 -45 39 -45 34 0 64 -20 50 -33 -3 -4 -19 -7
-34 -7 -15 0 -40 -11 -56 -25 l-28 -25 46 6 c26 4 54 2 64 -3 13 -8 31 -1 76
29 32 22 59 43 59 48 0 11 -26 20 -59 20 -16 0 -49 11 -75 25 -54 29 -74 31
-82 10z"/>
<path d="M1924 4404 c6 -21 1 -33 -19 -54 l-27 -28 37 -25 c36 -25 38 -25 83
-10 26 9 59 27 75 41 21 20 30 23 39 14 9 -9 8 -16 -5 -30 -9 -10 -17 -24 -17
-31 0 -14 42 -31 76 -31 36 0 25 -22 -16 -33 -62 -16 -18 -30 84 -25 91 4 95
3 105 -19 13 -28 32 -29 55 -4 10 11 36 21 62 24 25 2 48 8 52 11 3 4 -11 22
-32 40 -40 33 -42 45 -21 114 6 17 3 22 -12 22 -26 0 -63 -28 -63 -48 0 -9 -4
-23 -9 -31 -7 -11 -13 -6 -26 18 -16 31 -17 32 -35 16 -17 -15 -21 -16 -41 -2
-16 12 -27 13 -44 5 -32 -14 -61 4 -75 47 -13 40 -12 39 -56 23 -28 -10 -36
-9 -52 5 -12 11 -36 17 -71 17 -52 0 -53 0 -47 -26z"/>
<path d="M2976 4345 c-15 -8 -37 -15 -48 -15 -26 0 -70 -49 -66 -74 2 -12 13
-23 27 -26 13 -3 29 -14 35 -25 17 -30 28 -35 69 -28 27 4 48 0 72 -13 28 -15
38 -16 60 -6 40 18 61 15 98 -18 19 -16 41 -30 49 -30 16 0 68 -68 68 -88 0
-6 -7 -15 -16 -20 -8 -5 -21 -20 -28 -33 -12 -24 -25 -27 -78 -13 -24 5 -28 3
-34 -21 -9 -37 5 -43 78 -32 47 8 63 7 66 -2 13 -40 120 -116 138 -99 3 3 0
25 -6 48 -15 55 -5 63 29 21 30 -37 51 -35 51 4 0 18 -12 31 -45 51 -47 27
-59 60 -31 83 11 9 19 5 40 -19 34 -41 86 -57 104 -33 25 35 14 52 -58 88 -72
36 -95 62 -85 94 9 28 -45 67 -110 81 -44 9 -60 18 -81 45 -39 51 -86 75 -149
75 -30 0 -57 5 -60 10 -9 15 -56 12 -89 -5z"/>
<path d="M2540 4304 c0 -49 -2 -47 48 -27 6 3 12 -2 12 -11 0 -25 19 -19 30 9
17 46 -4 75 -57 75 -32 0 -33 -1 -33 -46z"/>
<path d="M2720 4256 c0 -8 -9 -24 -20 -37 l-19 -24 47 -42 c43 -38 46 -43 31
-57 -14 -15 -19 -14 -62 15 -49 33 -77 33 -77 1 0 -45 -32 -50 -133 -21 l-49
14 -38 -41 -38 -41 -22 29 c-23 31 -33 32 -113 12 -26 -6 -28 -5 -21 20 6 25
5 26 -37 26 -45 1 -72 9 -166 51 l-53 23 -24 -23 c-21 -20 -28 -21 -62 -12
-63 18 -101 13 -190 -24 -46 -19 -88 -35 -93 -35 -6 0 -31 14 -58 30 -37 23
-69 33 -133 41 -47 6 -136 22 -198 36 -130 28 -181 26 -234 -12 -18 -13 -43
-32 -56 -41 -12 -9 -37 -20 -55 -23 -45 -10 -40 -33 13 -52 30 -11 50 -27 62
-47 21 -38 8 -51 -27 -28 -31 21 -54 20 -83 -2 l-23 -18 36 -34 35 -34 36 17
c28 14 39 15 50 6 32 -26 11 -49 -58 -63 -28 -6 -50 -33 -63 -73 -5 -17 -2
-23 9 -23 9 0 23 -11 31 -24 10 -16 22 -22 35 -19 10 3 27 -4 39 -16 12 -12
30 -21 40 -21 50 0 23 -58 -40 -87 -53 -25 -49 -36 14 -31 73 6 127 48 190
146 27 42 53 81 58 87 12 13 29 -12 29 -43 0 -30 24 -38 56 -17 36 24 65 21
187 -14 142 -42 157 -49 164 -82 7 -35 37 -67 77 -84 38 -16 55 -35 90 -100
15 -27 42 -60 60 -72 19 -12 46 -38 61 -57 30 -40 32 -63 20 -196 -10 -106 -1
-125 101 -231 62 -64 80 -90 114 -168 67 -158 130 -251 156 -230 11 9 7 23
-20 77 -41 83 -54 132 -33 132 36 0 197 -208 197 -256 0 -12 11 -36 24 -51 33
-39 154 -94 225 -102 38 -5 68 -15 91 -33 19 -15 52 -29 73 -33 55 -11 87 -40
87 -80 0 -18 6 -38 14 -44 8 -7 54 -19 102 -26 93 -15 119 -30 127 -73 7 -35
-5 -64 -49 -112 -40 -44 -63 -99 -57 -133 3 -12 37 -87 76 -167 71 -143 73
-145 128 -177 84 -48 94 -75 79 -216 -19 -185 -39 -297 -69 -387 -16 -47 -31
-103 -33 -125 -2 -34 1 -42 20 -50 31 -14 28 -40 -14 -96 -35 -48 -35 -49 -20
-80 9 -18 16 -54 16 -80 0 -64 12 -86 76 -137 47 -37 60 -42 103 -42 62 0 71
12 27 38 -74 44 -81 94 -20 153 37 36 45 77 19 99 -24 20 -17 44 25 84 33 31
40 44 40 76 0 46 20 62 106 84 32 8 65 23 72 33 12 16 12 67 1 112 -3 11 6 14
39 12 39 -2 47 1 79 36 79 83 110 131 118 179 9 62 37 88 124 114 86 25 96 40
116 171 11 79 17 94 49 129 45 50 76 111 76 150 0 37 -36 77 -77 85 -15 3 -77
22 -138 41 -67 21 -130 34 -162 34 -54 0 -64 8 -38 30 52 43 -61 169 -153 170
-14 0 -48 24 -88 61 l-66 61 -84 -7 c-79 -6 -87 -5 -128 19 -66 39 -68 38
-172 -39 -20 -14 -29 -14 -95 0 -85 17 -101 32 -88 78 13 45 11 87 -3 87 -7
-1 -31 -4 -54 -9 -82 -16 -107 24 -63 96 18 28 20 39 10 59 -14 32 -27 30 -90
-12 -100 -68 -138 -64 -176 18 -29 62 -32 125 -9 174 23 48 46 58 123 50 64
-5 67 -5 110 29 24 19 54 35 66 35 36 0 70 -34 103 -105 44 -90 84 -84 62 10
-20 83 -14 104 39 155 27 26 61 71 76 101 28 53 197 234 243 258 24 13 27 9
34 -33 6 -35 29 -29 78 22 87 91 101 129 37 103 -58 -24 -71 -20 -78 22 -3 21
-14 44 -24 51 -18 13 -18 14 4 21 13 4 57 4 97 0 62 -6 74 -4 74 8 0 8 15 24
34 35 65 39 54 120 -19 134 -82 17 -95 26 -95 70 0 43 -42 133 -66 142 -9 3
-24 -10 -39 -34 -31 -48 -55 -51 -87 -9 -67 88 -81 99 -142 110 -97 18 -128
-10 -90 -83 15 -30 15 -32 -5 -48 l-22 -16 29 -40 c48 -66 56 -85 41 -95 -8
-5 -24 -9 -36 -9 -37 0 -56 -28 -49 -72 l6 -39 -32 3 c-36 3 -53 28 -63 90
l-6 38 -42 -6 c-39 -5 -47 -2 -102 41 -39 30 -65 44 -77 41 -61 -20 -58 -21
-58 17 0 27 -9 46 -32 73 l-32 36 42 37 c23 20 46 48 52 64 5 15 21 32 35 37
13 5 41 32 61 60 43 60 59 70 112 70 47 0 65 18 56 54 -5 19 -11 25 -24 21 -9
-3 -28 4 -43 15 -34 27 -46 25 -58 -10 -13 -37 -22 -38 -47 -3 -15 21 -27 27
-49 25 -23 -2 -32 4 -41 23 -7 14 -12 37 -12 49 0 15 -14 36 -35 55 -40 35
-45 37 -45 17z"/>
<path d="M2958 3890 c-14 -33 -22 -62 -17 -66 18 -11 46 7 65 41 10 19 21 35
25 35 3 0 16 -11 29 -25 16 -17 33 -25 50 -23 38 5 37 34 -2 53 -18 8 -44 22
-58 30 -47 28 -63 20 -92 -45z"/>
</g>
</svg>
